<svg width="18" height="16" viewBox="0 0 18 16" fill="none" xmlns="http://www.w3.org/2000/svg">
<path d="M4.85334 9.0107L1.06433 5.28859C0.354776 4.59931 0 3.77217 0 2.80718C0 1.84219 0.354776 1.01506 1.06433 0.325775L7.4503 6.48794L4.85334 9.0107ZM11.0264 7.39779L9.70668 8.67985L15.9224 14.7593L14.6452 16L8.42949 9.92055L2.17123 16L0.851463 14.7593L9.74925 6.15708C9.40867 5.49537 9.3519 4.72338 9.57896 3.8411C9.80602 2.95882 10.2743 2.17305 10.9839 1.48377C11.8637 0.65663 12.8429 0.174134 13.9214 0.0362779C14.9999 -0.101578 15.8727 0.153455 16.5397 0.801379C17.2067 1.4493 17.4692 2.29712 17.3273 3.34482C17.1854 4.39253 16.6745 5.34373 15.7946 6.19844C15.0851 6.88772 14.2833 7.34264 13.3893 7.56321C12.4952 7.78378 11.7076 7.72864 11.0264 7.39779Z" fill="black"/>
</svg>
