<svg width="14" height="16" viewBox="0 0 14 16" fill="none" xmlns="http://www.w3.org/2000/svg">
<path d="M9.14286 0V1.53571H4.57143V0H9.14286ZM6.10714 9.92857V5.35714H7.60714V9.92857H6.10714ZM12.2143 4.89286C13.2143 6.13095 13.7143 7.54762 13.7143 9.14286C13.7143 11.0476 13.0476 12.6667 11.7143 14C10.381 15.3333 8.76191 16 6.85714 16C4.95238 16 3.33333 15.3333 2 14C0.666667 12.6667 0 11.0536 0 9.16071C0 7.26786 0.666667 5.64881 2 4.30357C3.33333 2.95833 4.95238 2.28571 6.85714 2.28571C8.45238 2.28571 9.88095 2.79762 11.1429 3.82143L12.2143 2.71429C12.5952 3.02381 12.9524 3.38095 13.2857 3.78571L12.2143 4.89286ZM6.85714 14.5C8.33333 14.5 9.58929 13.9762 10.625 12.9286C11.6607 11.881 12.1786 10.619 12.1786 9.14286C12.1786 7.66667 11.6607 6.41071 10.625 5.375C9.58929 4.33929 8.33333 3.82143 6.85714 3.82143C5.38095 3.82143 4.125 4.33929 3.08929 5.375C2.05357 6.41071 1.53571 7.66667 1.53571 9.14286C1.53571 10.619 2.05357 11.881 3.08929 12.9286C4.125 13.9762 5.38095 14.5 6.85714 14.5Z" fill="rgba(0, 0, 0, 0.6)"/>
</svg>
